<?xml version="1.0" standalone="no"?><!DOCTYPE svg PUBLIC "-//W3C//DTD SVG 1.1//EN" "http://www.w3.org/Graphics/SVG/1.1/DTD/svg11.dtd"><svg t="1604456232029" class="icon" viewBox="0 0 1024 1024" version="1.1" xmlns="http://www.w3.org/2000/svg" p-id="3954" xmlns:xlink="http://www.w3.org/1999/xlink" width="16" height="16"><defs><style type="text/css"></style></defs><path d="M916.27 501.34c-25.35 0-45.97-20.62-45.97-45.97 0-25.36 20.62-45.98 45.97-45.98 25.36 0 45.98 20.62 45.98 45.98 0 25.34-20.62 45.97-45.98 45.97z m0-76.22c-16.67 0-30.24 13.57-30.24 30.25 0 16.67 13.57 30.24 30.24 30.24 16.68 0 30.25-13.57 30.25-30.24 0-16.69-13.57-30.25-30.25-30.25z" fill="#0D196C" p-id="3955"></path><path d="M81.67 693.29m-16.44 0a16.44 16.44 0 1 0 32.88 0 16.44 16.44 0 1 0-32.88 0Z" fill="#0D196C" p-id="3956"></path><path d="M823.16 209.06m-16.44 0a16.44 16.44 0 1 0 32.88 0 16.44 16.44 0 1 0-32.88 0Z" fill="#0D196C" p-id="3957"></path><path d="M191.83 230.19l-1.63 0.14c-3.86 0.33-7.3-2.56-7.62-6.43l-3.26-38.22c-0.33-3.86 2.56-7.3 6.43-7.62l1.63-0.14c3.86-0.33 7.3 2.56 7.62 6.43l3.26 38.22c0.33 3.86-2.57 7.29-6.43 7.62zM199.93 325.23l-1.63 0.14c-3.86 0.33-7.3-2.56-7.62-6.43l-3.26-38.22c-0.33-3.86 2.56-7.3 6.43-7.62l1.63-0.14c3.86-0.33 7.3 2.56 7.62 6.43l3.26 38.22c0.33 3.86-2.56 7.29-6.43 7.62zM214.29 250.64l-0.14-1.63c-0.33-3.86 2.56-7.3 6.43-7.62l38.22-3.26c3.86-0.33 7.3 2.56 7.62 6.43l0.14 1.63c0.33 3.86-2.56 7.3-6.43 7.62l-38.22 3.26c-3.86 0.32-7.29-2.57-7.62-6.43zM119.26 258.74l-0.14-1.63c-0.33-3.86 2.56-7.3 6.43-7.62l38.22-3.26c3.86-0.33 7.3 2.56 7.62 6.43l0.14 1.63c0.33 3.86-2.56 7.3-6.43 7.62l-38.22 3.26c-3.86 0.33-7.3-2.57-7.62-6.43z" fill="#0D196C" p-id="3958"></path><path d="M688.45 349.54c2.25 8.81 4.15 17.33 6.63 25.68 4.51 15.56 9 31.14 14.07 46.52 5.21 15.81 10.55 31.64 16.78 47.05 9.78 24.18 19.77 48.3 30.72 71.94a1594.41 1594.41 0 0 0 35.81 71.95c11.76 22.37 24.48 44.27 36.83 66.33 2.76 5.03 5.83 9.93 8.85 15.03-13.64 15.34-28.62 29.07-48.07 36.62-13.28 4.97-27.1 8.32-41.18 9.98-5.35 0.68-10.76 0.97-16.13 1.66-2.75 0.36-22.94 20.98-22.36 23.9a3.63 3.63 0 0 1-1.24 3.18 153.46 153.46 0 0 1-54.52 16.32c-22.86 2.23-45.53 0.35-68.18-2.4-0.91-0.12-1.78-0.43-3-0.69-0.71-6.67-24.61 1.6-23.68 8.56 0.22 0.77 0.1 1.6-0.34 2.27-0.43 0.67-1.14 1.12-1.93 1.23-8.89 2.31-17.65 5.25-26.68 6.71a274.892 274.892 0 0 1-52.7 2.76c-16.34-0.55-32.67-1.38-48.62-5.43-3.78-0.96-7.42-2.46-11.18-3.52-2.04-0.57-3.12-2.43-3.24-5.6l-24.19-1.43c-0.61 1.84-1.62 2.92-3.07 3.24a85.358 85.358 0 0 1-28.92 0.29c-13.8-1.88-27.53-4.16-41.19-6.85a167.884 167.884 0 0 1-41.81-13.72c-2.24-1.09-2.76-2.14-2.07-4.76 5.94-21.27-13.88-41.63-17.8-27.69-0.3 0.73-0.67 1.42-1.08 2.1-12.46-2.65-25.51-4.28-37.75-8.31a392.85 392.85 0 0 1-46.95-18.92c-10.91-5.2-20.76-12.59-31.04-19.16-0.7-0.96-0.86-2.21-0.43-3.31 4.24-7.52 8.77-14.86 13.06-22.36 9.88-17.26 19.69-34.55 29.41-51.9 7.48-13.46 15.01-26.92 21.92-40.68 12.45-24.74 24.9-49.5 36.55-74.71 9.82-21.28 18.99-42.87 27.48-64.72 8.68-22.26 16.25-44.96 24.23-67.49 2.07-5.84 3.69-11.85 5.74-17.7 0.41-0.69 2.49-9.3 6.22-25.83v-74.04l380.98 1.03c-0.1 36.79-0.1 59.88 0 69.26 0 2.08 1.36 11.28 4.07 27.61z m0 0" fill="#FFFFFF" p-id="3959"></path><path d="M713.83 246.86c10.33 0 14.67 4.04 14.76 14.29l0.03 16.07-0.02 17.59c0 0.3 0.24 0.54 0.54 0.54h11.5c7 0 12.67 5.67 12.67 12.67v59.54c0 7-5.67 12.67-12.67 12.67l2.74 9.94c2.9 10.31 5.92 20.56 9.23 30.72a822.532 822.532 0 0 0 24.25 65.26c11.64 27.67 24.13 54.93 37.15 81.92 10.84 22.43 22.65 44.44 34.68 66.28 12.31 22.36 25.83 36.37 34.59 60.33 0.66 1.81 3.72 9.42-1.42 15.82-10.82 13.47-20 22.17-34.83 33.66-16.43 12.45-35.21 19.38-55.12 23.33-11.16 2.23-27.76-0.35-32.5 6.61-4.55 6.69-3.37 9.7-5.75 14.97-3.21 7.12-21.42 12.97-35.26 18.03-29.65 10.8-60.29 11.88-91.31 9.27-6.92-0.61-8.57-0.9-15.54-1.72-5.84-0.69-11.53 1.19-14.72 3.1-3.04 1.82-15.68 8.67-26.27 11.21-24.59 5.88-49.64 6.55-74.69 5.62-12.68-0.47-33.33-2.54-45.89-4.4-7.64-1.13-15.32-2.83-22.14-6.23-4.62-2.31-9.79-3.29-14.85-2.31-9.25 1.79-18.64 1.65-28.01 1.13-27.6-1.61-54.86-6.88-81.07-15.68A120.656 120.656 0 0 1 269 789.33c-2.98-2.26-4.45-4.45-2.85-8.31 1.21-3.49 2.53-5.88 0.42-8.93-1.59-2.3-8.49-3.34-8.49-3.34-18.12-2.59-35.37-8.18-52.29-14.93-17.54-6.99-34.6-14.96-50.32-25.54a131.893 131.893 0 0 1-25.93-22.32c-1.61-1.8-1.81-4.49-0.56-6.56 7.54-12.5 15.02-25.02 22.42-37.58 6.91-11.81 13.84-23.52 20.53-35.56 8.36-15.07 19.53-22.79 27.58-38.03 7.98-15.21 14.82-27.5 22.21-42.93l12.61-21.61c4.2-8.71 17.31-38.58 21.22-47.43 1.99-4.52-6.9-2.98-4.99-7.53 12.03-28.98 22.97-58.4 33.8-87.86l0.23-0.69h-0.14c-14.65 0-28.67-7.7-35.2-20.81-16.12-32.35 6.95-64.05 37.21-64h12.43l-0.09-18.71c0-4.87 0.02-9.73 0.07-14.59 0.09-8.41 6.87-15.2 15.28-15.2h399.68z" fill="#FDA0C1" p-id="3960"></path><path d="M303.81 251.65h425.33v40.91H303.81z" fill="#FCF7A2" p-id="3961"></path><path d="M220.24 535.37a10.9 10.9 0 0 0 14.21-5.26c1.58-3.29 3.36-7 4.97-10.34 2.67-5.57 0.24-12.23-5.38-14.79-5.46-2.48-11.89-0.16-14.49 5.25-1.58 3.28-3.36 6.99-4.97 10.34-2.67 5.56-0.2 12.23 5.45 14.71l0.21 0.09z" fill="#0D196C" p-id="3962"></path><path d="M893.62 690.91c-5.94-16.26-14.01-28.42-21.8-40.18-4.48-6.76-9.12-13.75-13.49-21.68-10.61-19.27-22.99-42.16-34.41-65.75-14.1-29.23-26.17-55.87-36.91-81.41a815.178 815.178 0 0 1-23.94-64.4c-2.91-8.94-5.79-18.57-9.07-30.25l-0.03-0.11c6.25-4.27 10.36-11.45 10.36-19.57v-59.54c0-13.08-10.61-23.69-23.69-23.69h-1.01l0.01-7.14-0.03-16.15c-0.14-16.26-9.29-25.21-25.77-25.21H314.17c-14.41 0-26.17 11.6-26.3 26.01-0.04 4.93-0.07 9.86-0.07 14.84l0.03 7.64H286.41c-12.83 0-25.57 4.19-35.04 12.84-19.52 17.85-23.62 43.72-11.98 67.09 5.97 12 17.08 20.88 30.22 24.77-7.24 19.6-22.26 57.44-29.46 75.36-2.19 5.46 0.36 11.62 5.74 13.99l0.21 0.09c5.64 2.47 12.19-0.17 14.47-5.89 8.08-20.26 25.6-64.71 34.13-87.91 0.05-0.13 0.32-0.96 0.36-1.08 1.09-3.36 0.44-7.03-1.63-9.88-2.07-2.86-5.46-4.55-8.99-4.55-10.94 0-20.89-5.78-25.33-14.71-7.47-14.97-4.75-31.17 8-41.57 5.4-4.4 12.34-6.5 19.3-6.5H298.88c2.93 0 5.74-1.17 7.81-3.25 2.07-2.07 3.23-4.89 3.21-7.82l-0.09-18.66c0-4.86 0.03-9.7 0.07-14.55a4.268 4.268 0 0 1 4.26-4.22h399.67c2.08 0 3.1 0.22 3.4 0.15 0.12 0.44 0.32 1.39 0.34 3.13l0.03 16.04-0.03 17.61c-0.01 6.36 5.19 11.56 11.54 11.56h11.52c0.91 0 1.65 0.74 1.65 1.65v59.54c0 0.97-0.81 1.64-1.78 1.65-3.4 0.04-6.58 1.64-8.63 4.35a11.025 11.025 0 0 0-1.86 9.61l2.76 9.99c3.37 12.03 6.34 21.93 9.34 31.14a832.38 832.38 0 0 0 24.59 66.13c10.89 25.89 23.11 52.86 37.39 82.45 11.64 24.08 24.2 47.28 34.95 66.79 4.8 8.73 9.69 16.1 14.42 23.23 7.74 11.67 14.42 21.75 19.56 35.8 1.17 3.17 0.76 4.29 0.26 4.9-10 12.45-18.33 20.49-32.89 31.78-13.53 10.26-30.09 17.23-50.63 21.31-2.92 0.59-6.89 0.77-10.73 0.96-10.54 0.51-22.48 1.08-28.73 10.27-3.96 5.82-4.95 10.13-5.67 13.27-0.24 1.05-0.44 2.11-0.64 2.72-2.72 3.26-17.17 8.46-24.93 11.25l-4.42 1.59c-24.23 8.83-51.75 11.59-86.57 8.65-4.92-0.43-7.08-0.7-10.55-1.13l-4.65-0.56c-10.92-1.27-19.33 3.19-21.69 4.6-3.81 2.29-14.94 7.97-23.16 9.94-25.64 6.13-51.79 6.07-71.72 5.32-11.6-0.43-31.64-2.36-44.69-4.29-8.29-1.22-14.09-2.82-18.84-5.2-5.12-2.55-10.48-3.84-15.78-3.84-2.04 0-4.07 0.19-6.07 0.58-8.32 1.6-17.09 1.39-25.28 0.95-26.64-1.55-52.95-6.65-78.38-15.19-10.5-3.34-20.39-8.2-29.7-14.73 1.21-3.71 2.44-9.74-1.9-16.02-2.85-4.13-8.2-6.82-15.99-8-14.93-2.13-30.74-6.66-49.76-14.26-19.95-7.95-35.29-15.72-48.36-24.51-7.63-5-14.68-10.87-21-17.47 6.86-11.37 13.65-22.78 20.39-34.23l2.92-4.99c5.98-10.2 11.94-20.37 17.73-30.79 8.4-15.14 16.65-30.37 24.73-45.69 1.69-3.22 3.39-6.48 5.1-9.75 2.92-5.61 0.55-12.52-5.2-15.14-5.34-2.43-11.63-0.24-14.34 4.96-1.69 3.25-3.38 6.48-5.06 9.67-8.01 15.17-16.18 30.26-24.5 45.25-5.71 10.27-11.59 20.29-17.47 30.34l-2.92 4.98c-7.38 12.53-14.82 25.01-22.36 37.48-3.76 6.21-3.07 14.19 1.77 19.59 8.3 9.27 17.76 17.41 28.01 24.13 14.3 9.62 30.95 18.09 52.39 26.63 20.13 8.03 37.17 12.95 53.36 15.38-1.31 4.98-1.14 12.33 7.39 18.77 11.58 8.51 24.4 15.04 37.92 19.33 27.1 9.11 55.34 14.57 83.97 16.24 9.63 0.55 20.06 0.75 30.71-1.31 3.07-0.61 5.97 0.41 7.84 1.34 8.85 4.42 18.26 6.22 25.45 7.27 11.95 1.77 33.35 4 47.08 4.51 5.54 0.21 11.54 0.36 17.89 0.36 18.05 0 38.88-1.27 59.79-6.27 11.71-2.81 25.17-9.97 29.34-12.47 1.42-0.85 4.6-2.02 7.78-1.62l4.54 0.55c3.74 0.46 6.06 0.75 11.38 1.21 38.13 3.19 68.64 0.05 96-9.91l4.33-1.56c19.57-7.03 32.72-12.39 37.19-22.28 1.37-3.02 1.94-5.49 2.39-7.48 0.47-2.05 0.74-3.19 1.97-5.15 2.23-0.86 8.29-1.15 12.02-1.33 4.65-0.22 9.45-0.46 13.97-1.35 23.88-4.74 43.39-13.03 59.72-25.43 15.99-12.4 25.59-21.68 36.67-35.47 3.35-4.08 8.18-13 3.2-26.44z" fill="#0D196C" p-id="3963"></path><path d="M415.51 391.51c-21.58 0-41.73 0-59.45-0.02-76.9-0.07-76.9-0.07-80.37-4.84l8.91-6.48 0.84-10.98c9.96 0.5 302.09 0.22 455.17 0.02h0.02c6.08 0 11.01 4.92 11.02 11 0.01 6.09-4.92 11.03-11 11.04 0 0-113.89 0.15-227.84 0.22-33.38 0.03-66.77 0.04-97.3 0.04zM729.14 306.38H298.9c-6.09 0-11.02-4.93-11.02-11.02s4.93-11.02 11.02-11.02h430.24c6.09 0 11.02 4.93 11.02 11.02s-4.94 11.02-11.02 11.02z" fill="#0D196C" p-id="3964"></path><path d="M484.55 404.48l-5.18-13.1-14.76 10.63s10.01-20.11 14.94-33.25c3.18-8.48 6.6-25.32 6.6-25.32l19.94 2.47s-2.55 11.83-7.48 26.91c-4.51 13.78-14.06 31.66-14.06 31.66z" fill="#FCF7A2" p-id="3965"></path><path d="M484.55 406.52h-0.12a2.05 2.05 0 0 1-1.78-1.29l-4.21-10.67-12.64 9.1c-0.76 0.55-1.79 0.51-2.51-0.1-0.71-0.61-0.92-1.62-0.5-2.46 0.1-0.2 10.02-20.17 14.85-33.06 3.09-8.23 6.48-24.85 6.51-25.01 0.21-1.04 1.19-1.76 2.25-1.61l19.94 2.47c0.57 0.07 1.08 0.38 1.41 0.84 0.33 0.47 0.45 1.05 0.33 1.61-0.03 0.12-2.63 12.11-7.54 27.12-4.5 13.79-13.8 31.25-14.2 31.99-0.35 0.66-1.04 1.07-1.79 1.07z m-5.18-17.18c0.19 0 0.38 0.03 0.57 0.08 0.6 0.18 1.09 0.62 1.32 1.21l3.53 8.93c3.04-6.02 8.74-17.78 11.87-27.37 3.62-11.08 5.97-20.46 6.93-24.54l-15.84-1.96c-0.99 4.65-3.7 16.83-6.31 23.79-3.06 8.16-8.1 19.07-11.49 26.17l8.22-5.92c0.36-0.25 0.78-0.39 1.2-0.39z" fill="#0D196C" p-id="3966"></path><path d="M525.43 401.77l3.66-13.61 15.87 8.9s-12.21-18.85-18.59-31.35c-4.12-8.07-9.42-24.42-9.42-24.42l-19.53 4.7s3.87 11.47 10.47 25.9c6.03 13.19 17.54 29.88 17.54 29.88z" fill="#FCF7A2" p-id="3967"></path><path d="M525.43 403.81c-0.66 0-1.29-0.32-1.68-0.88-0.47-0.69-11.68-16.99-17.71-30.18-6.56-14.36-10.51-25.98-10.55-26.09-0.18-0.54-0.13-1.14 0.15-1.64s0.75-0.86 1.31-0.99l19.53-4.7c1.03-0.25 2.08 0.34 2.41 1.35 0.05 0.16 5.3 16.29 9.29 24.12 6.26 12.27 18.37 30.98 18.49 31.17 0.51 0.79 0.42 1.82-0.22 2.5-0.64 0.68-1.67 0.84-2.48 0.38l-13.58-7.62-2.98 11.08c-0.21 0.76-0.84 1.34-1.62 1.48-0.13 0.01-0.25 0.02-0.36 0.02z m-25.34-56.36c1.42 3.94 4.81 13.01 9.65 23.6 4.2 9.18 11.19 20.22 14.89 25.86l2.5-9.28c0.16-0.61 0.6-1.1 1.18-1.35s1.24-0.21 1.79 0.1l8.84 4.96c-4.17-6.68-10.41-16.94-14.37-24.71-3.38-6.62-7.44-18.42-8.95-22.93l-15.53 3.75z" fill="#0D196C" p-id="3968"></path><path d="M461.45 332.34c0 10.59-1.12 28.96-2.51 34.23-0.7 2.66 1.01 5.32 3.18 4.92 11.04-2.01 27.07-24.67 31.12-28.18 0.6-0.52 0.95-1.38 0.95-2.31v-17.26c0-0.96-0.38-1.85-1.01-2.36-4.14-3.35-20.05-25.01-31.05-26.76-2.09-0.33-3.77 2.33-3.06 4.87 1.36 4.88 2.38 22.5 2.38 32.85z m0.48-37.22" fill="#FCF7A2" p-id="3969"></path><path d="M461.68 373.57c-1.25 0-2.44-0.53-3.36-1.53-1.41-1.52-1.93-3.82-1.36-5.99 1.29-4.92 2.44-22.95 2.44-33.71 0-10.81-1.06-27.85-2.3-32.31-0.58-2.1-0.09-4.35 1.28-5.89 1.08-1.21 2.55-1.77 4.06-1.53 8.86 1.41 19.73 13.67 26.93 21.77 2.22 2.5 4.13 4.65 5.07 5.41 1.11 0.9 1.77 2.37 1.77 3.94V341c0 1.53-0.6 2.94-1.65 3.85-0.91 0.79-2.75 2.96-4.88 5.47-7.27 8.58-18.25 21.55-27.22 23.17-0.25 0.06-0.51 0.08-0.78 0.08z m0.1-76.94c-0.13 0-0.28 0.14-0.36 0.23-0.36 0.4-0.64 1.23-0.4 2.09 1.47 5.3 2.45 23.61 2.45 33.4 0 10.05-1.08 29.06-2.58 34.75-0.25 0.93 0.04 1.79 0.41 2.19 0.23 0.25 0.38 0.22 0.44 0.21 7.53-1.37 18.79-14.66 24.83-21.8 2.42-2.86 4.17-4.93 5.31-5.92 0.1-0.09 0.25-0.37 0.25-0.77v-17.26c0-0.42-0.16-0.7-0.26-0.78-1.2-0.97-3.03-3.03-5.55-5.87-6.4-7.21-17.11-19.28-24.53-20.46 0.01-0.01 0-0.01-0.01-0.01z" fill="#0D196C" p-id="3970"></path><path d="M544.66 299.49c0.71-2.54-0.97-5.2-3.06-4.87-10.99 1.75-26.91 23.41-31.05 26.76-0.63 0.51-1.01 1.4-1.01 2.36V341c0 0.93 0.35 1.79 0.95 2.31 4.04 3.51 20.07 26.18 31.12 28.18 2.17 0.39 3.88-2.27 3.18-4.92-1.39-5.27-2.51-23.64-2.51-34.23 0.01-10.35 1.03-27.97 2.38-32.85z m-2.86-4.37" fill="#FCF7A2" p-id="3971"></path><path d="M542.05 373.57c-0.26 0-0.53-0.02-0.79-0.07-8.97-1.63-19.95-14.59-27.22-23.17-2.13-2.52-3.97-4.69-4.88-5.47-1.05-0.91-1.66-2.32-1.66-3.85v-17.26c0-1.57 0.66-3.05 1.77-3.94 0.94-0.76 2.86-2.92 5.07-5.41 7.2-8.11 18.08-20.37 26.94-21.78 1.51-0.24 2.98 0.32 4.06 1.53 1.37 1.54 1.86 3.8 1.28 5.89-1.24 4.46-2.3 21.49-2.3 32.31 0 10.76 1.15 28.79 2.44 33.71 0.57 2.17 0.05 4.47-1.36 5.99-0.91 0.99-2.1 1.52-3.35 1.52z m-0.1-76.94h-0.03c-7.42 1.18-18.13 13.25-24.53 20.46-2.52 2.84-4.35 4.9-5.55 5.87-0.1 0.08-0.26 0.36-0.26 0.78V341c0 0.41 0.15 0.69 0.25 0.77 1.14 0.99 2.89 3.06 5.31 5.92 6.05 7.14 17.3 20.43 24.83 21.8 0.05 0.01 0.21 0.04 0.44-0.21 0.37-0.4 0.66-1.26 0.41-2.19-1.5-5.68-2.58-24.7-2.58-34.75 0-9.79 0.98-28.1 2.45-33.4 0.24-0.86-0.04-1.69-0.4-2.09-0.06-0.09-0.21-0.22-0.34-0.22z" fill="#0D196C" p-id="3972"></path><path d="M490.83 332.82a10.86 11.41 0 1 0 21.72 0 10.86 11.41 0 1 0-21.72 0Z" fill="#FCF7A2" p-id="3973"></path><path d="M501.69 345.62c-7.23 0-12.9-5.62-12.9-12.8 0-7.18 5.67-12.8 12.9-12.8s12.9 5.62 12.9 12.8c0 7.18-5.67 12.8-12.9 12.8z m0-22.81c-4.79 0-8.83 4.59-8.83 10.01 0 5.43 4.04 10.02 8.83 10.02s8.83-4.59 8.83-10.02-4.05-10.01-8.83-10.01z" fill="#0D196C" p-id="3974"></path><path d="M489.51 367.83m-2.04 0a2.04 2.04 0 1 0 4.08 0 2.04 2.04 0 1 0-4.08 0Z" fill="#0D196C" p-id="3975"></path><path d="M515.89 365.79m-2.04 0a2.04 2.04 0 1 0 4.08 0 2.04 2.04 0 1 0-4.08 0Z" fill="#0D196C" p-id="3976"></path><path d="M479.8 392.64c-0.35 0-0.7-0.09-1.03-0.28a2.035 2.035 0 0 1-0.74-2.79c3.81-6.53 7.48-16.23 7.52-16.32 0.4-1.06 1.58-1.59 2.63-1.19 1.06 0.4 1.59 1.58 1.19 2.63-0.15 0.41-3.83 10.11-7.81 16.94-0.37 0.64-1.06 1.01-1.76 1.01zM528.36 389.29c-0.63 0-1.25-0.29-1.65-0.83-4.69-6.36-9.39-15.61-9.59-16-0.51-1.01-0.11-2.24 0.9-2.75 1-0.51 2.23-0.11 2.75 0.9 0.05 0.09 4.75 9.34 9.23 15.42a2.044 2.044 0 0 1-1.64 3.26z" fill="#0D196C" p-id="3977"></path><path d="M400.49 338.59m-17.21 0a17.21 17.21 0 1 0 34.42 0 17.21 17.21 0 1 0-34.42 0Z" fill="#FCF7A2" p-id="3978"></path><path d="M338.05 338.59m-17.21 0a17.21 17.21 0 1 0 34.42 0 17.21 17.21 0 1 0-34.42 0Z" fill="#FCF7A2" p-id="3979"></path><path d="M671.24 338.59m-17.21 0a17.21 17.21 0 1 0 34.42 0 17.21 17.21 0 1 0-34.42 0Z" fill="#FCF7A2" p-id="3980"></path><path d="M608.8 338.59m-17.21 0a17.21 17.21 0 1 0 34.42 0 17.21 17.21 0 1 0-34.42 0Z" fill="#FCF7A2" p-id="3981"></path><path d="M759.42 785.13c-3.89 0-7.65-2.06-9.66-5.71-1.89-3.43-46.46-85.29-72.1-209.31-1.24-5.96 2.59-11.78 8.56-13.02 5.96-1.28 11.78 2.6 13.02 8.56 24.94 120.55 69.39 202.34 69.84 203.15 2.93 5.34 0.98 12.03-4.35 14.96-1.69 0.93-3.52 1.37-5.31 1.37z" fill="#0D196C" p-id="3982"></path><path d="M611.56 825.68c-4.68 0-9.02-3-10.5-7.7-1.92-6.05-46.91-149.66-46.91-276.33 0-6.09 4.93-11.02 11.02-11.02s11.02 4.93 11.02 11.02c0 123.29 45.42 268.23 45.87 269.68 1.84 5.8-1.38 11.99-7.18 13.82-1.09 0.37-2.21 0.53-3.32 0.53z" fill="#0D196C" p-id="3983"></path><path d="M413.01 832.67c-0.91 0-1.85-0.11-2.77-0.35-5.9-1.52-9.43-7.54-7.9-13.43 0.51-1.97 50.94-197.6 45.45-276.47-0.42-6.07 4.16-11.34 10.23-11.76 6.23-0.34 11.34 4.17 11.76 10.23 5.73 82.43-43.99 275.35-46.11 283.52-1.29 4.97-5.77 8.26-10.66 8.26z" fill="#0D196C" p-id="3984"></path><path d="M266.58 783.12c-1.89 0-3.8-0.49-5.56-1.52-5.25-3.07-7.02-9.82-3.93-15.07 0.54-0.93 54.65-94.25 67.37-192.64 0.77-6.03 6.31-10.36 12.34-9.51 6.03 0.77 10.3 6.3 9.51 12.34-13.3 102.95-67.89 197-70.21 200.95a11.012 11.012 0 0 1-9.52 5.45z" fill="#0D196C" p-id="3985"></path><path d="M268.17 447.73c-0.36 0-0.71-0.01-1.07-0.01-6.09-0.07-10.97-5.06-10.9-11.14 0.07-6.04 4.99-10.9 11.02-10.9 0.31-0.01 0.64 0 0.96 0.01 47.38 0 58.68-46.05 59.15-48.03 1.39-5.92 7.3-9.6 13.23-8.22 5.93 1.38 9.61 7.31 8.22 13.23-5.28 22.61-28.91 65.06-80.61 65.06z" fill="#0D196C" p-id="3986"></path><path d="M755.32 447.73c-51.72 0-75.34-42.45-80.62-65.05-1.39-5.92 2.29-11.85 8.22-13.23 5.92-1.41 11.84 2.28 13.23 8.2 0.52 2.13 12.25 48.05 59.17 48.05 0.32 0 0.62 0 0.94-0.01 6.03 0 10.95 4.86 11.02 10.9 0.07 6.08-4.81 11.07-10.9 11.14-0.34-0.01-0.7 0-1.06 0z" fill="#0D196C" p-id="3987"></path><path d="M652.85 449.29c-3.59 0-6.98 1.61-9.24 4.23a12.275 12.275 0 0 0-9.24-4.23c-6.36 0-11.29 4.83-11.29 11.08 0 7.66 6.98 13.8 17.56 23.26l2.98 2.62 2.98-2.62c10.57-9.47 17.56-15.61 17.56-23.26-0.01-6.25-4.94-11.08-11.31-11.08z" fill="#FCF7A2" p-id="3988"></path><path d="M652.85 449.29c6.37 0 11.3 4.83 11.3 11.08 0 7.66-6.98 13.8-17.56 23.26l-2.98 2.62-2.98-2.62c-10.58-9.47-17.56-15.61-17.56-23.26 0-6.25 4.93-11.08 11.29-11.08 3.59 0 6.98 1.61 9.24 4.23 2.27-2.62 5.66-4.23 9.25-4.23m0-8.82c-3.24 0-6.4 0.75-9.24 2.14-2.84-1.39-6-2.14-9.24-2.14-11.27 0-20.1 8.74-20.1 19.89 0 11.5 8.42 19.03 20.08 29.46l0.42 0.37 3.03 2.67 5.82 5.12 5.82-5.12 2.98-2.62 0.51-0.46c11.63-10.41 20.04-17.94 20.04-29.42-0.01-11.15-8.85-19.89-20.12-19.89z" fill="#0D196C" p-id="3989"></path></svg>